# xmcd
#
# Track frame offsets:
#	150
#	17733
#	34755
#	52794
#	72509
#	89263
#	108287
#	121698
#	141918
#	158383
#	178161
#	199666
#	219616
#	235483
#	248120
#	262549
#	281354
#	302496
#	322205
#	341996
#
# Disc length: 4768 seconds
#
# Revision: 1
# Processed by: cddbd v1.4PL0 Copyright (c) Steve Scherf et al.
# Submitted via: audiograbber 1.81.02
#
DISCID=17129e14
DTITLE=Arling and Cameron - Best trips
DYEAR=1900
DGENRE=
TTITLE0=Speeding down the heghway
TTITLE1=1999 Spaceclub
TTITLE2=5th demesion
TTITLE3=Voulez-vous
TTITLE4=Zona sul
TTITLE5=W.E.E.K.E.N.D.
TTITLE6=Groovy
TTITLE7=Let's get higher
TTITLE8=Up
TTITLE9=My favourite songz
TTITLE10=Love and Understanding
TTITLE11=Le filc et la fille
TTITLE12=B.B. Electro
TTITLE13=Hash!
TTITLE14=Coconut conda
TTITLE15=New day
TTITLE16=Can you pah-pah
TTITLE17=Here we go
TTITLE18=Born in June
TTITLE19=Ocean drive
EXTD=
EXTT0=
EXTT1=
EXTT2=
EXTT3=
EXTT4=
EXTT5=
EXTT6=
EXTT7=
EXTT8=
EXTT9=
EXTT10=
EXTT11=
EXTT12=
EXTT13=
EXTT14=
EXTT15=
EXTT16=
EXTT17=
EXTT18=
EXTT19=
PLAYORDER=
